<mxfile host="app.diagrams.net" agent="Mozilla/5.0 (X11; Ubuntu; Linux x86_64; rv:132.0) Gecko/20100101 Firefox/132.0" version="24.8.4">
  <diagram name="Page-1" id="ixsg6e2AebfVxs17hwH2">
    <mxGraphModel dx="2284" dy="822" grid="1" gridSize="10" guides="1" tooltips="1" connect="1" arrows="1" fold="1" page="1" pageScale="1" pageWidth="850" pageHeight="1100" math="0" shadow="0">
      <root>
        <mxCell id="0" />
        <mxCell id="1" parent="0" />
        <mxCell id="Y8kWIEE1diTFadLrnRW2-1" value="" style="ellipse;whiteSpace=wrap;html=1;aspect=fixed;" vertex="1" parent="1">
          <mxGeometry x="80" y="110" width="80" height="80" as="geometry" />
        </mxCell>
        <mxCell id="Y8kWIEE1diTFadLrnRW2-2" value="" style="ellipse;whiteSpace=wrap;html=1;aspect=fixed;" vertex="1" parent="1">
          <mxGeometry x="-190" y="425" width="80" height="80" as="geometry" />
        </mxCell>
        <mxCell id="Y8kWIEE1diTFadLrnRW2-3" value="&lt;div&gt;BIH&lt;/div&gt;&lt;div&gt;&lt;code&gt;&lt;code&gt;&lt;code&gt;10.50.23.151&lt;/code&gt;&lt;/code&gt;&lt;/code&gt;&lt;/div&gt;" style="text;html=1;align=center;verticalAlign=middle;whiteSpace=wrap;rounded=0;" vertex="1" parent="1">
          <mxGeometry x="90" y="80" width="60" height="30" as="geometry" />
        </mxCell>
        <mxCell id="Y8kWIEE1diTFadLrnRW2-4" value="10.3.0.1" style="text;html=1;align=center;verticalAlign=middle;whiteSpace=wrap;rounded=0;" vertex="1" parent="1">
          <mxGeometry x="-410" y="675" width="60" height="30" as="geometry" />
        </mxCell>
        <mxCell id="Y8kWIEE1diTFadLrnRW2-5" value="T3&lt;br&gt;&lt;div&gt;&lt;code class=&quot;western&quot;&gt;10.50.27.164&lt;/code&gt;&lt;/div&gt;&lt;div&gt;&lt;style type=&quot;text/css&quot;&gt;blockquote { margin-left: 0.39in; margin-right: 0.39in; background: transparent }p { margin-bottom: 0.1in; line-height: 115%; background: transparent }code.western { font-family: &quot;Liberation Mono&quot;, monospace }code.cjk { font-family: &quot;Noto Sans Mono CJK SC&quot;, monospace }code.ctl { font-family: &quot;Liberation Mono&quot;, monospace }&lt;/style&gt;&lt;/div&gt;" style="text;html=1;align=center;verticalAlign=middle;whiteSpace=wrap;rounded=0;" vertex="1" parent="1">
          <mxGeometry x="-180" y="395" width="60" height="30" as="geometry" />
        </mxCell>
        <mxCell id="Y8kWIEE1diTFadLrnRW2-6" value="" style="ellipse;whiteSpace=wrap;html=1;aspect=fixed;" vertex="1" parent="1">
          <mxGeometry x="-420" y="705" width="80" height="80" as="geometry" />
        </mxCell>
        <mxCell id="Y8kWIEE1diTFadLrnRW2-7" value="" style="endArrow=none;html=1;rounded=0;" edge="1" parent="1">
          <mxGeometry width="50" height="50" relative="1" as="geometry">
            <mxPoint x="-150" y="595" as="sourcePoint" />
            <mxPoint x="-150" y="545" as="targetPoint" />
          </mxGeometry>
        </mxCell>
        <mxCell id="Y8kWIEE1diTFadLrnRW2-8" value="" style="endArrow=none;html=1;rounded=0;" edge="1" parent="1">
          <mxGeometry width="50" height="50" relative="1" as="geometry">
            <mxPoint x="-150" y="380" as="sourcePoint" />
            <mxPoint x="-150" y="320" as="targetPoint" />
          </mxGeometry>
        </mxCell>
        <mxCell id="Y8kWIEE1diTFadLrnRW2-9" value="21,80" style="text;html=1;align=center;verticalAlign=middle;whiteSpace=wrap;rounded=0;" vertex="1" parent="1">
          <mxGeometry x="-410" y="730" width="60" height="30" as="geometry" />
        </mxCell>
        <mxCell id="Y8kWIEE1diTFadLrnRW2-11" value="10.3.0.10" style="text;html=1;align=center;verticalAlign=middle;whiteSpace=wrap;rounded=0;" vertex="1" parent="1">
          <mxGeometry x="-180" y="505" width="60" height="30" as="geometry" />
        </mxCell>
        <mxCell id="Y8kWIEE1diTFadLrnRW2-12" value="22" style="text;html=1;align=center;verticalAlign=middle;whiteSpace=wrap;rounded=0;" vertex="1" parent="1">
          <mxGeometry x="-180" y="450" width="60" height="30" as="geometry" />
        </mxCell>
        <mxCell id="Y8kWIEE1diTFadLrnRW2-14" value="" style="shape=link;html=1;rounded=0;" edge="1" parent="1">
          <mxGeometry width="100" relative="1" as="geometry">
            <mxPoint x="-400" y="605" as="sourcePoint" />
            <mxPoint x="90" y="605" as="targetPoint" />
          </mxGeometry>
        </mxCell>
        <mxCell id="Y8kWIEE1diTFadLrnRW2-15" value="" style="endArrow=none;html=1;rounded=0;" edge="1" parent="1">
          <mxGeometry width="50" height="50" relative="1" as="geometry">
            <mxPoint x="-380.5" y="675" as="sourcePoint" />
            <mxPoint x="-380" y="625" as="targetPoint" />
          </mxGeometry>
        </mxCell>
        <mxCell id="Y8kWIEE1diTFadLrnRW2-16" value="10.3.0.27" style="text;html=1;align=center;verticalAlign=middle;whiteSpace=wrap;rounded=0;" vertex="1" parent="1">
          <mxGeometry x="-310" y="675" width="60" height="30" as="geometry" />
        </mxCell>
        <mxCell id="Y8kWIEE1diTFadLrnRW2-17" value="" style="ellipse;whiteSpace=wrap;html=1;aspect=fixed;" vertex="1" parent="1">
          <mxGeometry x="-320" y="705" width="80" height="80" as="geometry" />
        </mxCell>
        <mxCell id="Y8kWIEE1diTFadLrnRW2-18" value="21,80" style="text;html=1;align=center;verticalAlign=middle;whiteSpace=wrap;rounded=0;" vertex="1" parent="1">
          <mxGeometry x="-310" y="730" width="60" height="30" as="geometry" />
        </mxCell>
        <mxCell id="Y8kWIEE1diTFadLrnRW2-19" value="" style="endArrow=none;html=1;rounded=0;" edge="1" parent="1">
          <mxGeometry width="50" height="50" relative="1" as="geometry">
            <mxPoint x="-280.5" y="675" as="sourcePoint" />
            <mxPoint x="-280" y="625" as="targetPoint" />
          </mxGeometry>
        </mxCell>
        <mxCell id="Y8kWIEE1diTFadLrnRW2-20" value="10.3.0.200" style="text;html=1;align=center;verticalAlign=middle;whiteSpace=wrap;rounded=0;" vertex="1" parent="1">
          <mxGeometry x="-220" y="675" width="60" height="30" as="geometry" />
        </mxCell>
        <mxCell id="Y8kWIEE1diTFadLrnRW2-21" value="" style="ellipse;whiteSpace=wrap;html=1;aspect=fixed;" vertex="1" parent="1">
          <mxGeometry x="-230" y="705" width="80" height="80" as="geometry" />
        </mxCell>
        <mxCell id="Y8kWIEE1diTFadLrnRW2-22" value="53" style="text;html=1;align=center;verticalAlign=middle;whiteSpace=wrap;rounded=0;" vertex="1" parent="1">
          <mxGeometry x="-220" y="730" width="60" height="30" as="geometry" />
        </mxCell>
        <mxCell id="Y8kWIEE1diTFadLrnRW2-23" value="" style="endArrow=none;html=1;rounded=0;" edge="1" parent="1">
          <mxGeometry width="50" height="50" relative="1" as="geometry">
            <mxPoint x="-190.5" y="675" as="sourcePoint" />
            <mxPoint x="-190" y="625" as="targetPoint" />
          </mxGeometry>
        </mxCell>
        <mxCell id="Y8kWIEE1diTFadLrnRW2-24" value="10.3.0.201" style="text;html=1;align=center;verticalAlign=middle;whiteSpace=wrap;rounded=0;" vertex="1" parent="1">
          <mxGeometry x="-130" y="675" width="60" height="30" as="geometry" />
        </mxCell>
        <mxCell id="Y8kWIEE1diTFadLrnRW2-25" value="" style="ellipse;whiteSpace=wrap;html=1;aspect=fixed;" vertex="1" parent="1">
          <mxGeometry x="-140" y="705" width="80" height="80" as="geometry" />
        </mxCell>
        <mxCell id="Y8kWIEE1diTFadLrnRW2-26" value="53" style="text;html=1;align=center;verticalAlign=middle;whiteSpace=wrap;rounded=0;" vertex="1" parent="1">
          <mxGeometry x="-130" y="730" width="60" height="30" as="geometry" />
        </mxCell>
        <mxCell id="Y8kWIEE1diTFadLrnRW2-27" value="" style="endArrow=none;html=1;rounded=0;" edge="1" parent="1">
          <mxGeometry width="50" height="50" relative="1" as="geometry">
            <mxPoint x="-100.5" y="675" as="sourcePoint" />
            <mxPoint x="-100" y="625" as="targetPoint" />
          </mxGeometry>
        </mxCell>
        <mxCell id="Y8kWIEE1diTFadLrnRW2-28" value="10.10.0.40" style="text;html=1;align=center;verticalAlign=middle;whiteSpace=wrap;rounded=0;" vertex="1" parent="1">
          <mxGeometry x="90" y="190" width="60" height="30" as="geometry" />
        </mxCell>
        <mxCell id="Y8kWIEE1diTFadLrnRW2-29" value="10.3.0.236" style="text;html=1;align=center;verticalAlign=middle;whiteSpace=wrap;rounded=0;" vertex="1" parent="1">
          <mxGeometry x="-40" y="675" width="60" height="30" as="geometry" />
        </mxCell>
        <mxCell id="Y8kWIEE1diTFadLrnRW2-30" value="" style="ellipse;whiteSpace=wrap;html=1;aspect=fixed;" vertex="1" parent="1">
          <mxGeometry x="-50" y="705" width="80" height="80" as="geometry" />
        </mxCell>
        <mxCell id="Y8kWIEE1diTFadLrnRW2-32" value="" style="endArrow=none;html=1;rounded=0;" edge="1" parent="1">
          <mxGeometry width="50" height="50" relative="1" as="geometry">
            <mxPoint x="-10.5" y="675" as="sourcePoint" />
            <mxPoint x="-10" y="625" as="targetPoint" />
          </mxGeometry>
        </mxCell>
        <mxCell id="Y8kWIEE1diTFadLrnRW2-33" value="10.3.0.254" style="text;html=1;align=center;verticalAlign=middle;whiteSpace=wrap;rounded=0;" vertex="1" parent="1">
          <mxGeometry x="50" y="675" width="60" height="30" as="geometry" />
        </mxCell>
        <mxCell id="Y8kWIEE1diTFadLrnRW2-34" value="" style="ellipse;whiteSpace=wrap;html=1;aspect=fixed;" vertex="1" parent="1">
          <mxGeometry x="40" y="705" width="80" height="80" as="geometry" />
        </mxCell>
        <mxCell id="Y8kWIEE1diTFadLrnRW2-36" value="" style="endArrow=none;html=1;rounded=0;" edge="1" parent="1">
          <mxGeometry width="50" height="50" relative="1" as="geometry">
            <mxPoint x="79.5" y="675" as="sourcePoint" />
            <mxPoint x="80" y="625" as="targetPoint" />
          </mxGeometry>
        </mxCell>
        <mxCell id="Y8kWIEE1diTFadLrnRW2-37" value="" style="shape=link;html=1;rounded=0;" edge="1" parent="1">
          <mxGeometry width="100" relative="1" as="geometry">
            <mxPoint x="-180" y="310" as="sourcePoint" />
            <mxPoint x="450" y="310" as="targetPoint" />
          </mxGeometry>
        </mxCell>
        <mxCell id="Y8kWIEE1diTFadLrnRW2-38" value="" style="endArrow=none;html=1;rounded=0;" edge="1" parent="1">
          <mxGeometry width="50" height="50" relative="1" as="geometry">
            <mxPoint x="119" y="290" as="sourcePoint" />
            <mxPoint x="119" y="230" as="targetPoint" />
          </mxGeometry>
        </mxCell>
        <mxCell id="Y8kWIEE1diTFadLrnRW2-39" value="" style="ellipse;whiteSpace=wrap;html=1;aspect=fixed;" vertex="1" parent="1">
          <mxGeometry x="385" y="425" width="80" height="80" as="geometry" />
        </mxCell>
        <mxCell id="Y8kWIEE1diTFadLrnRW2-40" value="&lt;div&gt;T4&lt;/div&gt;&lt;div&gt;&lt;code class=&quot;western&quot;&gt;10.50.29.131&lt;/code&gt;&lt;br&gt;&lt;style type=&quot;text/css&quot;&gt;blockquote { margin-left: 0.39in; margin-right: 0.39in; background: transparent }p { margin-bottom: 0.1in; line-height: 115%; background: transparent }code.western { font-family: &quot;Liberation Mono&quot;, monospace }code.cjk { font-family: &quot;Noto Sans Mono CJK SC&quot;, monospace }code.ctl { font-family: &quot;Liberation Mono&quot;, monospace }&lt;/style&gt;&lt;/div&gt;&lt;div&gt;&lt;style type=&quot;text/css&quot;&gt;blockquote { margin-left: 0.39in; margin-right: 0.39in; background: transparent }p { margin-bottom: 0.1in; line-height: 115%; background: transparent }code.western { font-family: &quot;Liberation Mono&quot;, monospace }code.cjk { font-family: &quot;Noto Sans Mono CJK SC&quot;, monospace }code.ctl { font-family: &quot;Liberation Mono&quot;, monospace }&lt;/style&gt;&lt;/div&gt;" style="text;html=1;align=center;verticalAlign=middle;whiteSpace=wrap;rounded=0;" vertex="1" parent="1">
          <mxGeometry x="395" y="395" width="60" height="30" as="geometry" />
        </mxCell>
        <mxCell id="Y8kWIEE1diTFadLrnRW2-41" value="10.2.0.1" style="text;html=1;align=center;verticalAlign=middle;whiteSpace=wrap;rounded=0;" vertex="1" parent="1">
          <mxGeometry x="395" y="505" width="60" height="30" as="geometry" />
        </mxCell>
        <mxCell id="Y8kWIEE1diTFadLrnRW2-42" value="23" style="text;html=1;align=center;verticalAlign=middle;whiteSpace=wrap;rounded=0;" vertex="1" parent="1">
          <mxGeometry x="395" y="450" width="60" height="30" as="geometry" />
        </mxCell>
        <mxCell id="Y8kWIEE1diTFadLrnRW2-43" value="" style="endArrow=none;html=1;rounded=0;" edge="1" parent="1">
          <mxGeometry width="50" height="50" relative="1" as="geometry">
            <mxPoint x="424.5" y="387" as="sourcePoint" />
            <mxPoint x="424.5" y="327" as="targetPoint" />
          </mxGeometry>
        </mxCell>
        <mxCell id="Y8kWIEE1diTFadLrnRW2-44" value="Tunnels" style="swimlane;fontStyle=0;childLayout=stackLayout;horizontal=1;startSize=30;horizontalStack=0;resizeParent=1;resizeParentMax=0;resizeLast=0;collapsible=1;marginBottom=0;whiteSpace=wrap;html=1;" vertex="1" parent="1">
          <mxGeometry x="610" y="80" width="140" height="90" as="geometry" />
        </mxCell>
        <mxCell id="Y8kWIEE1diTFadLrnRW2-45" value="52001 -&amp;gt; T4:22" style="text;strokeColor=none;fillColor=none;align=left;verticalAlign=middle;spacingLeft=4;spacingRight=4;overflow=hidden;points=[[0,0.5],[1,0.5]];portConstraint=eastwest;rotatable=0;whiteSpace=wrap;html=1;" vertex="1" parent="Y8kWIEE1diTFadLrnRW2-44">
          <mxGeometry y="30" width="140" height="30" as="geometry" />
        </mxCell>
        <mxCell id="Y8kWIEE1diTFadLrnRW2-46" value="52002 -&amp;gt; T4:22" style="text;strokeColor=none;fillColor=none;align=left;verticalAlign=middle;spacingLeft=4;spacingRight=4;overflow=hidden;points=[[0,0.5],[1,0.5]];portConstraint=eastwest;rotatable=0;whiteSpace=wrap;html=1;" vertex="1" parent="Y8kWIEE1diTFadLrnRW2-44">
          <mxGeometry y="60" width="140" height="30" as="geometry" />
        </mxCell>
        <mxCell id="Y8kWIEE1diTFadLrnRW2-48" value="" style="shape=flexArrow;endArrow=classic;html=1;rounded=0;" edge="1" parent="1">
          <mxGeometry width="50" height="50" relative="1" as="geometry">
            <mxPoint x="165" y="180" as="sourcePoint" />
            <mxPoint x="370" y="410" as="targetPoint" />
          </mxGeometry>
        </mxCell>
        <mxCell id="Y8kWIEE1diTFadLrnRW2-49" value="10.2.0.2" style="text;html=1;align=center;verticalAlign=middle;whiteSpace=wrap;rounded=0;" vertex="1" parent="1">
          <mxGeometry x="170" y="675" width="60" height="30" as="geometry" />
        </mxCell>
        <mxCell id="Y8kWIEE1diTFadLrnRW2-50" value="21,80" style="ellipse;whiteSpace=wrap;html=1;aspect=fixed;" vertex="1" parent="1">
          <mxGeometry x="160" y="705" width="80" height="80" as="geometry" />
        </mxCell>
        <mxCell id="Y8kWIEE1diTFadLrnRW2-51" value="" style="endArrow=none;html=1;rounded=0;" edge="1" parent="1">
          <mxGeometry width="50" height="50" relative="1" as="geometry">
            <mxPoint x="430" y="595" as="sourcePoint" />
            <mxPoint x="430" y="545" as="targetPoint" />
          </mxGeometry>
        </mxCell>
        <mxCell id="Y8kWIEE1diTFadLrnRW2-53" value="" style="shape=link;html=1;rounded=0;" edge="1" parent="1">
          <mxGeometry width="100" relative="1" as="geometry">
            <mxPoint x="180" y="605" as="sourcePoint" />
            <mxPoint x="670" y="605" as="targetPoint" />
          </mxGeometry>
        </mxCell>
        <mxCell id="Y8kWIEE1diTFadLrnRW2-54" value="" style="endArrow=none;html=1;rounded=0;" edge="1" parent="1">
          <mxGeometry width="50" height="50" relative="1" as="geometry">
            <mxPoint x="199.5" y="675" as="sourcePoint" />
            <mxPoint x="200" y="625" as="targetPoint" />
          </mxGeometry>
        </mxCell>
        <mxCell id="Y8kWIEE1diTFadLrnRW2-55" value="10.2.0.3" style="text;html=1;align=center;verticalAlign=middle;whiteSpace=wrap;rounded=0;" vertex="1" parent="1">
          <mxGeometry x="270" y="675" width="60" height="30" as="geometry" />
        </mxCell>
        <mxCell id="Y8kWIEE1diTFadLrnRW2-56" value="22,23" style="ellipse;whiteSpace=wrap;html=1;aspect=fixed;" vertex="1" parent="1">
          <mxGeometry x="260" y="705" width="80" height="80" as="geometry" />
        </mxCell>
        <mxCell id="Y8kWIEE1diTFadLrnRW2-58" value="" style="endArrow=none;html=1;rounded=0;" edge="1" parent="1">
          <mxGeometry width="50" height="50" relative="1" as="geometry">
            <mxPoint x="299.5" y="675" as="sourcePoint" />
            <mxPoint x="300" y="625" as="targetPoint" />
          </mxGeometry>
        </mxCell>
        <mxCell id="Y8kWIEE1diTFadLrnRW2-59" value="10.2.0.200" style="text;html=1;align=center;verticalAlign=middle;whiteSpace=wrap;rounded=0;" vertex="1" parent="1">
          <mxGeometry x="360" y="675" width="60" height="30" as="geometry" />
        </mxCell>
        <mxCell id="Y8kWIEE1diTFadLrnRW2-60" value="53" style="ellipse;whiteSpace=wrap;html=1;aspect=fixed;" vertex="1" parent="1">
          <mxGeometry x="350" y="705" width="80" height="80" as="geometry" />
        </mxCell>
        <mxCell id="Y8kWIEE1diTFadLrnRW2-62" value="" style="endArrow=none;html=1;rounded=0;" edge="1" parent="1">
          <mxGeometry width="50" height="50" relative="1" as="geometry">
            <mxPoint x="389.5" y="675" as="sourcePoint" />
            <mxPoint x="390" y="625" as="targetPoint" />
          </mxGeometry>
        </mxCell>
        <mxCell id="Y8kWIEE1diTFadLrnRW2-63" value="10.2.0.201" style="text;html=1;align=center;verticalAlign=middle;whiteSpace=wrap;rounded=0;" vertex="1" parent="1">
          <mxGeometry x="450" y="675" width="60" height="30" as="geometry" />
        </mxCell>
        <mxCell id="Y8kWIEE1diTFadLrnRW2-64" value="53" style="ellipse;whiteSpace=wrap;html=1;aspect=fixed;" vertex="1" parent="1">
          <mxGeometry x="440" y="705" width="80" height="80" as="geometry" />
        </mxCell>
        <mxCell id="Y8kWIEE1diTFadLrnRW2-66" value="" style="endArrow=none;html=1;rounded=0;" edge="1" parent="1">
          <mxGeometry width="50" height="50" relative="1" as="geometry">
            <mxPoint x="479.5" y="675" as="sourcePoint" />
            <mxPoint x="480" y="625" as="targetPoint" />
          </mxGeometry>
        </mxCell>
        <mxCell id="Y8kWIEE1diTFadLrnRW2-67" value="10.2.0.245" style="text;html=1;align=center;verticalAlign=middle;whiteSpace=wrap;rounded=0;" vertex="1" parent="1">
          <mxGeometry x="540" y="675" width="60" height="30" as="geometry" />
        </mxCell>
        <mxCell id="Y8kWIEE1diTFadLrnRW2-68" value="" style="ellipse;whiteSpace=wrap;html=1;aspect=fixed;" vertex="1" parent="1">
          <mxGeometry x="530" y="705" width="80" height="80" as="geometry" />
        </mxCell>
        <mxCell id="Y8kWIEE1diTFadLrnRW2-69" value="" style="endArrow=none;html=1;rounded=0;" edge="1" parent="1">
          <mxGeometry width="50" height="50" relative="1" as="geometry">
            <mxPoint x="569.5" y="675" as="sourcePoint" />
            <mxPoint x="570" y="625" as="targetPoint" />
          </mxGeometry>
        </mxCell>
        <mxCell id="Y8kWIEE1diTFadLrnRW2-70" value="10.5.0.254" style="text;html=1;align=center;verticalAlign=middle;whiteSpace=wrap;rounded=0;" vertex="1" parent="1">
          <mxGeometry x="630" y="675" width="60" height="30" as="geometry" />
        </mxCell>
        <mxCell id="Y8kWIEE1diTFadLrnRW2-71" value="" style="ellipse;whiteSpace=wrap;html=1;aspect=fixed;" vertex="1" parent="1">
          <mxGeometry x="620" y="705" width="80" height="80" as="geometry" />
        </mxCell>
        <mxCell id="Y8kWIEE1diTFadLrnRW2-72" value="" style="endArrow=none;html=1;rounded=0;" edge="1" parent="1">
          <mxGeometry width="50" height="50" relative="1" as="geometry">
            <mxPoint x="659.5" y="675" as="sourcePoint" />
            <mxPoint x="660" y="625" as="targetPoint" />
          </mxGeometry>
        </mxCell>
        <mxCell id="Y8kWIEE1diTFadLrnRW2-73" value="" style="shape=flexArrow;endArrow=classic;html=1;rounded=0;" edge="1" parent="1">
          <mxGeometry width="50" height="50" relative="1" as="geometry">
            <mxPoint x="-70" y="470" as="sourcePoint" />
            <mxPoint x="360" y="470" as="targetPoint" />
          </mxGeometry>
        </mxCell>
        <mxCell id="Y8kWIEE1diTFadLrnRW2-74" value="52001 -&amp;gt; T4:22" style="text;html=1;align=center;verticalAlign=middle;whiteSpace=wrap;rounded=0;" vertex="1" parent="1">
          <mxGeometry x="60" y="440" width="90" height="25" as="geometry" />
        </mxCell>
        <mxCell id="Y8kWIEE1diTFadLrnRW2-75" value="52002 -&amp;gt; T4:22" style="text;html=1;align=center;verticalAlign=middle;whiteSpace=wrap;rounded=0;rotation=45;" vertex="1" parent="1">
          <mxGeometry x="210" y="240" width="100" height="30" as="geometry" />
        </mxCell>
        <mxCell id="Y8kWIEE1diTFadLrnRW2-76" value="" style="shape=flexArrow;endArrow=classic;html=1;rounded=0;" edge="1" parent="1" source="Y8kWIEE1diTFadLrnRW2-77">
          <mxGeometry width="50" height="50" relative="1" as="geometry">
            <mxPoint x="215" y="150" as="sourcePoint" />
            <mxPoint x="260" y="660" as="targetPoint" />
          </mxGeometry>
        </mxCell>
        <mxCell id="Y8kWIEE1diTFadLrnRW2-78" value="&lt;div&gt;Atalantica government server&lt;/div&gt;&lt;div&gt;10.4.0.0/24&lt;/div&gt;&lt;div&gt;10.5.0.0/24&lt;br&gt;&lt;/div&gt;" style="text;html=1;align=center;verticalAlign=middle;whiteSpace=wrap;rounded=0;" vertex="1" parent="1">
          <mxGeometry x="205" y="800" width="190" height="30" as="geometry" />
        </mxCell>
        <mxCell id="Y8kWIEE1diTFadLrnRW2-79" value="" style="shape=flexArrow;endArrow=classic;html=1;rounded=0;" edge="1" parent="1" target="Y8kWIEE1diTFadLrnRW2-77">
          <mxGeometry width="50" height="50" relative="1" as="geometry">
            <mxPoint x="215" y="150" as="sourcePoint" />
            <mxPoint x="260" y="660" as="targetPoint" />
          </mxGeometry>
        </mxCell>
        <mxCell id="Y8kWIEE1diTFadLrnRW2-77" value="Dynamic" style="text;html=1;align=center;verticalAlign=middle;whiteSpace=wrap;rounded=0;rotation=45;" vertex="1" parent="1">
          <mxGeometry x="205" y="380" width="60" height="30" as="geometry" />
        </mxCell>
      </root>
    </mxGraphModel>
  </diagram>
</mxfile>
